<?xml version="1.0" encoding="UTF-8"?>
<svg version="1.1" xmlns="http://www.w3.org/2000/svg" width="524" height="531">
<path d="M0 0 C172.92 0 345.84 0 524 0 C524 175.23 524 350.46 524 531 C351.08 531 178.16 531 0 531 C0 355.77 0 180.54 0 0 Z " fill="#FEFEFE" transform="translate(0,0)"/>
<path d="M0 0 C5.28 0 10.56 0 16 0 C16 4.95 16 9.9 16 15 C20.95 15 25.9 15 31 15 C31 10.05 31 5.1 31 0 C36.28 0 41.56 0 47 0 C47 5.28 47 10.56 47 16 C41.72 16 36.44 16 31 16 C31 20.95 31 25.9 31 31 C26.05 31 21.1 31 16 31 C16 35.95 16 40.9 16 46 C20.95 46 25.9 46 31 46 C31 56.23 31 66.46 31 77 C41.23 77 51.46 77 62 77 C62 67.1 62 57.2 62 47 C56.72 47 51.44 47 46 47 C46 41.72 46 36.44 46 31 C51.28 31 56.56 31 62 31 C62 35.95 62 40.9 62 46 C77.18 46 92.36 46 108 46 C108 35.77 108 25.54 108 15 C103.05 15 98.1 15 93 15 C93 10.05 93 5.1 93 0 C98.28 0 103.56 0 109 0 C109 4.95 109 9.9 109 15 C119.23 15 129.46 15 140 15 C140 20.28 140 25.56 140 31 C134.72 31 129.44 31 124 31 C124 35.95 124 40.9 124 46 C129.28 46 134.56 46 140 46 C140 51.28 140 56.56 140 62 C119.54 62 99.08 62 78 62 C78 92.69 78 123.38 78 155 C82.95 155 87.9 155 93 155 C93 159.95 93 164.9 93 170 C103.23 170 113.46 170 124 170 C124 175.28 124 180.56 124 186 C129.28 186 134.56 186 140 186 C140 190.95 140 195.9 140 201 C144.95 201 149.9 201 155 201 C155 196.05 155 191.1 155 186 C160.28 186 165.56 186 171 186 C171 196.23 171 206.46 171 217 C165.72 217 160.44 217 155 217 C155 221.95 155 226.9 155 232 C160.28 232 165.56 232 171 232 C171 242.23 171 252.46 171 263 C175.95 263 180.9 263 186 263 C186 268.28 186 273.56 186 279 C190.95 279 195.9 279 201 279 C201 268.77 201 258.54 201 248 C196.05 248 191.1 248 186 248 C186 242.72 186 237.44 186 232 C190.95 232 195.9 232 201 232 C201 216.82 201 201.64 201 186 C206.28 186 211.56 186 217 186 C217 211.41 217 236.82 217 263 C221.95 263 226.9 263 232 263 C232 247.82 232 232.64 232 217 C237.28 217 242.56 217 248 217 C248 212.05 248 207.1 248 202 C242.72 202 237.44 202 232 202 C232 191.77 232 181.54 232 171 C227.05 171 222.1 171 217 171 C217 165.72 217 160.44 217 155 C227.23 155 237.46 155 248 155 C248 150.05 248 145.1 248 140 C242.72 140 237.44 140 232 140 C232 134.72 232 129.44 232 124 C237.28 124 242.56 124 248 124 C248 128.95 248 133.9 248 139 C253.28 139 258.56 139 264 139 C264 149.56 264 160.12 264 171 C258.72 171 253.44 171 248 171 C248 175.95 248 180.9 248 186 C253.28 186 258.56 186 264 186 C264 201.51 264 217.02 264 233 C258.72 233 253.44 233 248 233 C248 237.95 248 242.9 248 248 C253.28 248 258.56 248 264 248 C264 263.51 264 279.02 264 295 C258.72 295 253.44 295 248 295 C248 299.95 248 304.9 248 310 C242.72 310 237.44 310 232 310 C232 299.77 232 289.54 232 279 C222.1 279 212.2 279 202 279 C202 283.95 202 288.9 202 294 C206.95 294 211.9 294 217 294 C217 299.28 217 304.56 217 310 C212.05 310 207.1 310 202 310 C202 320.23 202 330.46 202 341 C206.95 341 211.9 341 217 341 C217 335.72 217 330.44 217 325 C232.51 325 248.02 325 264 325 C264 340.51 264 356.02 264 372 C258.72 372 253.44 372 248 372 C248 377.28 248 382.56 248 388 C243.05 388 238.1 388 233 388 C233 392.95 233 397.9 233 403 C227.72 403 222.44 403 217 403 C217 408.28 217 413.56 217 419 C212.05 419 207.1 419 202 419 C202 423.95 202 428.9 202 434 C206.95 434 211.9 434 217 434 C217 439.28 217 444.56 217 450 C201.49 450 185.98 450 170 450 C170 444.72 170 439.44 170 434 C175.28 434 180.56 434 186 434 C186 429.05 186 424.1 186 419 C180.72 419 175.44 419 170 419 C170 408.77 170 398.54 170 388 C160.1 388 150.2 388 140 388 C140 392.95 140 397.9 140 403 C144.95 403 149.9 403 155 403 C155 413.23 155 423.46 155 434 C150.05 434 145.1 434 140 434 C140 439.28 140 444.56 140 450 C134.72 450 129.44 450 124 450 C124 444.72 124 439.44 124 434 C108.82 434 93.64 434 78 434 C78 439.28 78 444.56 78 450 C72.72 450 67.44 450 62 450 C62 444.72 62 439.44 62 434 C57.05 434 52.1 434 47 434 C47 439.28 47 444.56 47 450 C41.72 450 36.44 450 31 450 C31 439.77 31 429.54 31 419 C26.05 419 21.1 419 16 419 C16 429.23 16 439.46 16 450 C0.49 450 -15.02 450 -31 450 C-31 445.05 -31 440.1 -31 435 C-35.95 435 -40.9 435 -46 435 C-46 439.95 -46 444.9 -46 450 C-51.28 450 -56.56 450 -62 450 C-62 444.72 -62 439.44 -62 434 C-57.05 434 -52.1 434 -47 434 C-47 429.05 -47 424.1 -47 419 C-51.95 419 -56.9 419 -62 419 C-62 413.72 -62 408.44 -62 403 C-57.05 403 -52.1 403 -47 403 C-47 398.05 -47 393.1 -47 388 C-51.95 388 -56.9 388 -62 388 C-62 382.72 -62 377.44 -62 372 C-57.05 372 -52.1 372 -47 372 C-47 361.77 -47 351.54 -47 341 C-51.95 341 -56.9 341 -62 341 C-62 336.05 -62 331.1 -62 326 C-72.23 326 -82.46 326 -93 326 C-93 320.72 -93 315.44 -93 310 C-98.28 310 -103.56 310 -109 310 C-109 315.28 -109 320.56 -109 326 C-113.95 326 -118.9 326 -124 326 C-124 320.72 -124 315.44 -124 310 C-139.51 310 -155.02 310 -171 310 C-171 305.05 -171 300.1 -171 295 C-175.95 295 -180.9 295 -186 295 C-186 289.72 -186 284.44 -186 279 C-180.72 279 -175.44 279 -170 279 C-170 283.95 -170 288.9 -170 294 C-165.05 294 -160.1 294 -155 294 C-155 278.82 -155 263.64 -155 248 C-160.28 248 -165.56 248 -171 248 C-171 253.28 -171 258.56 -171 264 C-175.95 264 -180.9 264 -186 264 C-186 253.44 -186 242.88 -186 232 C-175.77 232 -165.54 232 -155 232 C-155 227.05 -155 222.1 -155 217 C-165.23 217 -175.46 217 -186 217 C-186 211.72 -186 206.44 -186 201 C-175.77 201 -165.54 201 -155 201 C-155 196.05 -155 191.1 -155 186 C-165.23 186 -175.46 186 -186 186 C-186 180.72 -186 175.44 -186 170 C-181.05 170 -176.1 170 -171 170 C-171 165.05 -171 160.1 -171 155 C-175.95 155 -180.9 155 -186 155 C-186 144.77 -186 134.54 -186 124 C-180.72 124 -175.44 124 -170 124 C-170 134.23 -170 144.46 -170 155 C-160.1 155 -150.2 155 -140 155 C-140 150.05 -140 145.1 -140 140 C-144.95 140 -149.9 140 -155 140 C-155 134.72 -155 129.44 -155 124 C-149.72 124 -144.44 124 -139 124 C-139 128.95 -139 133.9 -139 139 C-134.05 139 -129.1 139 -124 139 C-124 134.05 -124 129.1 -124 124 C-118.72 124 -113.44 124 -108 124 C-108 134.23 -108 144.46 -108 155 C-98.1 155 -88.2 155 -78 155 C-78 150.05 -78 145.1 -78 140 C-82.95 140 -87.9 140 -93 140 C-93 134.72 -93 129.44 -93 124 C-87.72 124 -82.44 124 -77 124 C-77 128.95 -77 133.9 -77 139 C-66.77 139 -56.54 139 -46 139 C-46 144.28 -46 149.56 -46 155 C-41.05 155 -36.1 155 -31 155 C-31 149.72 -31 144.44 -31 139 C-20.77 139 -10.54 139 0 139 C0 144.28 0 149.56 0 155 C4.95 155 9.9 155 15 155 C15 149.72 15 144.44 15 139 C20.28 139 25.56 139 31 139 C31 144.28 31 149.56 31 155 C35.95 155 40.9 155 46 155 C46 149.72 46 144.44 46 139 C51.28 139 56.56 139 62 139 C62 134.05 62 129.1 62 124 C56.72 124 51.44 124 46 124 C46 119.05 46 114.1 46 109 C41.05 109 36.1 109 31 109 C31 98.77 31 88.54 31 78 C26.05 78 21.1 78 16 78 C16 93.18 16 108.36 16 124 C10.72 124 5.44 124 0 124 C0 103.54 0 83.08 0 62 C-4.95 62 -9.9 62 -15 62 C-15 67.28 -15 72.56 -15 78 C-20.28 78 -25.56 78 -31 78 C-31 82.95 -31 87.9 -31 93 C-35.95 93 -40.9 93 -46 93 C-46 98.28 -46 103.56 -46 109 C-51.28 109 -56.56 109 -62 109 C-62 103.72 -62 98.44 -62 93 C-57.05 93 -52.1 93 -47 93 C-47 88.05 -47 83.1 -47 78 C-51.95 78 -56.9 78 -62 78 C-62 72.72 -62 67.44 -62 62 C-46.82 62 -31.64 62 -16 62 C-16 56.72 -16 51.44 -16 46 C-10.72 46 -5.44 46 0 46 C0 41.05 0 36.1 0 31 C-5.28 31 -10.56 31 -16 31 C-16 25.72 -16 20.44 -16 15 C-10.72 15 -5.44 15 0 15 C0 10.05 0 5.1 0 0 Z " fill="#030303" transform="translate(222,39)"/>
<path d="M0 0 C5.28 0 10.56 0 16 0 C16 4.95 16 9.9 16 15 C20.95 15 25.9 15 31 15 C31 10.05 31 5.1 31 0 C36.28 0 41.56 0 47 0 C47 5.28 47 10.56 47 16 C41.72 16 36.44 16 31 16 C31 20.95 31 25.9 31 31 C26.05 31 21.1 31 16 31 C16 35.95 16 40.9 16 46 C20.95 46 25.9 46 31 46 C31 56.23 31 66.46 31 77 C41.23 77 51.46 77 62 77 C62 67.1 62 57.2 62 47 C56.72 47 51.44 47 46 47 C46 41.72 46 36.44 46 31 C51.28 31 56.56 31 62 31 C62 35.95 62 40.9 62 46 C77.18 46 92.36 46 108 46 C108 35.77 108 25.54 108 15 C103.05 15 98.1 15 93 15 C93 10.05 93 5.1 93 0 C98.28 0 103.56 0 109 0 C109 4.95 109 9.9 109 15 C119.23 15 129.46 15 140 15 C140 20.28 140 25.56 140 31 C134.72 31 129.44 31 124 31 C124 35.95 124 40.9 124 46 C129.28 46 134.56 46 140 46 C140 51.28 140 56.56 140 62 C119.54 62 99.08 62 78 62 C78 92.69 78 123.38 78 155 C82.95 155 87.9 155 93 155 C93 159.95 93 164.9 93 170 C103.23 170 113.46 170 124 170 C124 175.28 124 180.56 124 186 C129.28 186 134.56 186 140 186 C140 190.95 140 195.9 140 201 C144.95 201 149.9 201 155 201 C155 196.05 155 191.1 155 186 C160.28 186 165.56 186 171 186 C171 196.23 171 206.46 171 217 C165.72 217 160.44 217 155 217 C155 221.95 155 226.9 155 232 C160.28 232 165.56 232 171 232 C171 242.23 171 252.46 171 263 C175.95 263 180.9 263 186 263 C186 268.28 186 273.56 186 279 C190.95 279 195.9 279 201 279 C201 268.77 201 258.54 201 248 C196.05 248 191.1 248 186 248 C186 242.72 186 237.44 186 232 C190.95 232 195.9 232 201 232 C201 216.82 201 201.64 201 186 C206.28 186 211.56 186 217 186 C217 211.41 217 236.82 217 263 C221.95 263 226.9 263 232 263 C232 247.82 232 232.64 232 217 C237.28 217 242.56 217 248 217 C248 212.05 248 207.1 248 202 C242.72 202 237.44 202 232 202 C232 191.77 232 181.54 232 171 C227.05 171 222.1 171 217 171 C217 165.72 217 160.44 217 155 C227.23 155 237.46 155 248 155 C248 150.05 248 145.1 248 140 C242.72 140 237.44 140 232 140 C232 134.72 232 129.44 232 124 C237.28 124 242.56 124 248 124 C248 128.95 248 133.9 248 139 C253.28 139 258.56 139 264 139 C264 149.56 264 160.12 264 171 C258.72 171 253.44 171 248 171 C248 175.95 248 180.9 248 186 C253.28 186 258.56 186 264 186 C264 201.51 264 217.02 264 233 C258.72 233 253.44 233 248 233 C248 237.95 248 242.9 248 248 C253.28 248 258.56 248 264 248 C264 263.51 264 279.02 264 295 C258.72 295 253.44 295 248 295 C248 299.95 248 304.9 248 310 C242.72 310 237.44 310 232 310 C232 299.77 232 289.54 232 279 C222.1 279 212.2 279 202 279 C202 283.95 202 288.9 202 294 C206.95 294 211.9 294 217 294 C217 299.28 217 304.56 217 310 C212.05 310 207.1 310 202 310 C202 320.23 202 330.46 202 341 C206.95 341 211.9 341 217 341 C217 335.72 217 330.44 217 325 C232.51 325 248.02 325 264 325 C264 340.51 264 356.02 264 372 C258.72 372 253.44 372 248 372 C248 377.28 248 382.56 248 388 C243.05 388 238.1 388 233 388 C233 392.95 233 397.9 233 403 C227.72 403 222.44 403 217 403 C217 408.28 217 413.56 217 419 C212.05 419 207.1 419 202 419 C202 423.95 202 428.9 202 434 C206.95 434 211.9 434 217 434 C217 439.28 217 444.56 217 450 C201.49 450 185.98 450 170 450 C170 444.72 170 439.44 170 434 C175.28 434 180.56 434 186 434 C186 429.05 186 424.1 186 419 C180.72 419 175.44 419 170 419 C170 408.77 170 398.54 170 388 C160.1 388 150.2 388 140 388 C140 392.95 140 397.9 140 403 C144.95 403 149.9 403 155 403 C155 413.23 155 423.46 155 434 C150.05 434 145.1 434 140 434 C140 439.28 140 444.56 140 450 C134.72 450 129.44 450 124 450 C124 444.72 124 439.44 124 434 C108.82 434 93.64 434 78 434 C78 439.28 78 444.56 78 450 C72.72 450 67.44 450 62 450 C62 444.72 62 439.44 62 434 C66.95 434 71.9 434 77 434 C77 428.72 77 423.44 77 418 C87.23 418 97.46 418 108 418 C108 413.05 108 408.1 108 403 C97.77 403 87.54 403 77 403 C77 387.49 77 371.98 77 356 C82.28 356 87.56 356 93 356 C93 351.05 93 346.1 93 341 C98.28 341 103.56 341 109 341 C109 361.46 109 381.92 109 403 C113.95 403 118.9 403 124 403 C124 377.59 124 352.18 124 326 C118.72 326 113.44 326 108 326 C108 320.72 108 315.44 108 310 C98.1 310 88.2 310 78 310 C78 315.28 78 320.56 78 326 C72.72 326 67.44 326 62 326 C62 330.95 62 335.9 62 341 C51.77 341 41.54 341 31 341 C31 346.28 31 351.56 31 357 C25.72 357 20.44 357 15 357 C15 351.72 15 346.44 15 341 C10.05 341 5.1 341 0 341 C0 330.77 0 320.54 0 310 C-4.95 310 -9.9 310 -15 310 C-15 314.95 -15 319.9 -15 325 C-15.33 325 -15.66 325 -16 325 C-16 314.77 -16 304.54 -16 294 C-0.49 294 15.02 294 31 294 C31 289.05 31 284.1 31 279 C33.18625 278.9175 35.3725 278.835 37.625 278.75 C52.73030569 277.87372994 65.5131612 272.3245592 78 264 C78 268.95 78 273.9 78 279 C88.23 279 98.46 279 109 279 C109 289.23 109 299.46 109 310 C129.13 310 149.26 310 170 310 C170 305.05 170 300.1 170 295 C165.05 295 160.1 295 155 295 C155 284.77 155 274.54 155 264 C149.72 264 144.44 264 139 264 C139 258.72 139 253.44 139 248 C134.05 248 129.1 248 124 248 C124 242.72 124 237.44 124 232 C128.95 232 133.9 232 139 232 C139 227.05 139 222.1 139 217 C129.1 217 119.2 217 109 217 C109 227.23 109 237.46 109 248 C102.73 248 96.46 248 90 248 C90.825 245.545625 91.65 243.09125 92.5 240.5625 C96.02370957 229.15493516 96.93654301 217.25729486 92.65625 205.8828125 C92 204 92 204 92 201 C97.28 201 102.56 201 108 201 C108 196.05 108 191.1 108 186 C106.15535156 186.0928125 104.31070313 186.185625 102.41015625 186.28125 C99.96100255 186.35631985 97.51177844 186.42911649 95.0625 186.5 C93.85013672 186.56703125 92.63777344 186.6340625 91.38867188 186.703125 C84.89305169 186.84395145 80.86669909 186.62677388 75.91796875 182.17578125 C74.93799927 181.12644409 74.93799927 181.12644409 73.93823242 180.0559082 C66.86215593 172.55022233 56.75433411 169.38374967 46.66162109 168.88427734 C41.43627031 168.75842691 36.22371873 168.84170549 31 169 C31 164.38 31 159.76 31 155 C35.95 155 40.9 155 46 155 C46 149.72 46 144.44 46 139 C51.28 139 56.56 139 62 139 C62 134.05 62 129.1 62 124 C56.72 124 51.44 124 46 124 C46 119.05 46 114.1 46 109 C41.05 109 36.1 109 31 109 C31 98.77 31 88.54 31 78 C26.05 78 21.1 78 16 78 C16 93.18 16 108.36 16 124 C10.72 124 5.44 124 0 124 C0 103.54 0 83.08 0 62 C-4.95 62 -9.9 62 -15 62 C-15 67.28 -15 72.56 -15 78 C-20.28 78 -25.56 78 -31 78 C-31 82.95 -31 87.9 -31 93 C-35.95 93 -40.9 93 -46 93 C-46 98.28 -46 103.56 -46 109 C-51.28 109 -56.56 109 -62 109 C-62 103.72 -62 98.44 -62 93 C-57.05 93 -52.1 93 -47 93 C-47 88.05 -47 83.1 -47 78 C-51.95 78 -56.9 78 -62 78 C-62 72.72 -62 67.44 -62 62 C-46.82 62 -31.64 62 -16 62 C-16 56.72 -16 51.44 -16 46 C-10.72 46 -5.44 46 0 46 C0 41.05 0 36.1 0 31 C-5.28 31 -10.56 31 -16 31 C-16 25.72 -16 20.44 -16 15 C-10.72 15 -5.44 15 0 15 C0 10.05 0 5.1 0 0 Z " fill="#010101" transform="translate(222,39)"/>
<path d="M0 0 C4.95 0 9.9 0 15 0 C15.495 6.435 15.495 6.435 16 13 C17.61455078 12.94779297 17.61455078 12.94779297 19.26171875 12.89453125 C35.33773978 12.52273511 47.10403373 15.19776302 60 25 C60.67417969 25.90363281 61.34835937 26.80726563 62.04296875 27.73828125 C67.00918995 31.53675163 72.73993473 30.78422629 78.8125 30.8125 C80.71032227 30.85020508 80.71032227 30.85020508 82.64648438 30.88867188 C85.76398889 30.94749271 88.88202828 30.97662053 92 31 C92 35.95 92 40.9 92 46 C86.72 46 81.44 46 76 46 C76.66 47.794375 77.32 49.58875 78 51.4375 C82.05273268 64.75362166 81.29383938 79.41232125 75 92 C80.94 92.33 86.88 92.66 93 93 C93 82.77 93 72.54 93 62 C102.9 62 112.8 62 123 62 C123 66.95 123 71.9 123 77 C118.05 77 113.1 77 108 77 C108 82.28 108 87.56 108 93 C112.95 93 117.9 93 123 93 C123 98.28 123 103.56 123 109 C128.28 109 133.56 109 139 109 C139 119.23 139 129.46 139 140 C143.95 140 148.9 140 154 140 C154 144.95 154 149.9 154 155 C133.87 155 113.74 155 93 155 C93 144.77 93 134.54 93 124 C82.77 124 72.54 124 62 124 C61.67 119.38 61.34 114.76 61 110 C59.618125 111.051875 58.23625 112.10375 56.8125 113.1875 C50.91749311 117.31818568 44.8014218 119.74460624 38 122 C36.97132813 122.37125 36.97132813 122.37125 35.921875 122.75 C29.22616467 124.84604845 21.91758455 124.1235283 15 124 C15 128.95 15 133.9 15 139 C-0.51 139 -16.02 139 -32 139 C-32 144.28 -32 149.56 -32 155 C-36.95 155 -41.9 155 -47 155 C-47 159.95 -47 164.9 -47 170 C-57.23 170 -67.46 170 -78 170 C-78 165.05 -78 160.1 -78 155 C-73.05 155 -68.1 155 -63 155 C-62.67 129.26 -62.34 103.52 -62 77 C-67.28 77 -72.56 77 -78 77 C-78 61.82 -78 46.64 -78 31 C-72.72 31 -67.44 31 -62 31 C-62 26.05 -62 21.1 -62 16 C-52.1 16 -42.2 16 -32 16 C-32 20.95 -32 25.9 -32 31 C-36.95 31 -41.9 31 -47 31 C-47 35.95 -47 40.9 -47 46 C-52.28 46 -57.56 46 -63 46 C-63 51.28 -63 56.56 -63 62 C-52.77 62 -42.54 62 -32 62 C-32 66.95 -32 71.9 -32 77 C-36.95 77 -41.9 77 -47 77 C-47 82.28 -47 87.56 -47 93 C-41.72 93 -36.44 93 -31 93 C-31 88.05 -31 83.1 -31 78 C-30.34 78 -29.68 78 -29 78 C-29.33 77.01 -29.66 76.02 -30 75 C-31.42071172 58.03264291 -26.99691954 43.78243536 -15.97265625 30.5703125 C-9.92234256 24.07142221 -2.47375576 18.82458525 6 16 C4.02 15.67 2.04 15.34 0 15 C0 10.05 0 5.1 0 0 Z " fill="#FCFCFC" transform="translate(238,194)"/>
<path d="M0 0 C5.28 0 10.56 0 16 0 C16 4.95 16 9.9 16 15 C20.95 15 25.9 15 31 15 C31 10.05 31 5.1 31 0 C36.28 0 41.56 0 47 0 C47 5.28 47 10.56 47 16 C41.72 16 36.44 16 31 16 C31 20.95 31 25.9 31 31 C26.05 31 21.1 31 16 31 C16 35.95 16 40.9 16 46 C20.95 46 25.9 46 31 46 C31 56.23 31 66.46 31 77 C41.23 77 51.46 77 62 77 C62 67.1 62 57.2 62 47 C56.72 47 51.44 47 46 47 C46 41.72 46 36.44 46 31 C51.28 31 56.56 31 62 31 C62 35.95 62 40.9 62 46 C77.18 46 92.36 46 108 46 C108 35.77 108 25.54 108 15 C103.05 15 98.1 15 93 15 C93 10.05 93 5.1 93 0 C98.28 0 103.56 0 109 0 C109 4.95 109 9.9 109 15 C119.23 15 129.46 15 140 15 C140 20.28 140 25.56 140 31 C134.72 31 129.44 31 124 31 C124 35.95 124 40.9 124 46 C129.28 46 134.56 46 140 46 C140 51.28 140 56.56 140 62 C119.54 62 99.08 62 78 62 C78 92.69 78 123.38 78 155 C82.95 155 87.9 155 93 155 C93 159.95 93 164.9 93 170 C103.23 170 113.46 170 124 170 C124 175.28 124 180.56 124 186 C129.28 186 134.56 186 140 186 C140 190.95 140 195.9 140 201 C144.95 201 149.9 201 155 201 C155 196.05 155 191.1 155 186 C160.28 186 165.56 186 171 186 C171 196.23 171 206.46 171 217 C165.72 217 160.44 217 155 217 C155 227.23 155 237.46 155 248 C144.77 248 134.54 248 124 248 C124 242.72 124 237.44 124 232 C128.95 232 133.9 232 139 232 C139 227.05 139 222.1 139 217 C129.1 217 119.2 217 109 217 C109 227.23 109 237.46 109 248 C102.73 248 96.46 248 90 248 C90.825 245.545625 91.65 243.09125 92.5 240.5625 C96.02370957 229.15493516 96.93654301 217.25729486 92.65625 205.8828125 C92 204 92 204 92 201 C97.28 201 102.56 201 108 201 C108 196.05 108 191.1 108 186 C106.15535156 186.0928125 104.31070313 186.185625 102.41015625 186.28125 C99.96100255 186.35631985 97.51177844 186.42911649 95.0625 186.5 C93.85013672 186.56703125 92.63777344 186.6340625 91.38867188 186.703125 C84.89305169 186.84395145 80.86669909 186.62677388 75.91796875 182.17578125 C74.93799927 181.12644409 74.93799927 181.12644409 73.93823242 180.0559082 C66.86215593 172.55022233 56.75433411 169.38374967 46.66162109 168.88427734 C41.43627031 168.75842691 36.22371873 168.84170549 31 169 C31 164.38 31 159.76 31 155 C35.95 155 40.9 155 46 155 C46 149.72 46 144.44 46 139 C51.28 139 56.56 139 62 139 C62 134.05 62 129.1 62 124 C56.72 124 51.44 124 46 124 C46 119.05 46 114.1 46 109 C41.05 109 36.1 109 31 109 C31 98.77 31 88.54 31 78 C26.05 78 21.1 78 16 78 C16 93.18 16 108.36 16 124 C10.72 124 5.44 124 0 124 C0 103.54 0 83.08 0 62 C-4.95 62 -9.9 62 -15 62 C-15 67.28 -15 72.56 -15 78 C-20.28 78 -25.56 78 -31 78 C-31 82.95 -31 87.9 -31 93 C-35.95 93 -40.9 93 -46 93 C-46 98.28 -46 103.56 -46 109 C-51.28 109 -56.56 109 -62 109 C-62 103.72 -62 98.44 -62 93 C-57.05 93 -52.1 93 -47 93 C-47 88.05 -47 83.1 -47 78 C-51.95 78 -56.9 78 -62 78 C-62 72.72 -62 67.44 -62 62 C-46.82 62 -31.64 62 -16 62 C-16 56.72 -16 51.44 -16 46 C-10.72 46 -5.44 46 0 46 C0 41.05 0 36.1 0 31 C-5.28 31 -10.56 31 -16 31 C-16 25.72 -16 20.44 -16 15 C-10.72 15 -5.44 15 0 15 C0 10.05 0 5.1 0 0 Z " fill="#010101" transform="translate(222,39)"/>
<path d="M0 0 C10.23 0 20.46 0 31 0 C31 5.28 31 10.56 31 16 C36.28 16 41.56 16 47 16 C47 20.95 47 25.9 47 31 C41.72 31 36.44 31 31 31 C31 36.28 31 41.56 31 47 C36.28 47 41.56 47 47 47 C47 51.95 47 56.9 47 62 C57.23 62 67.46 62 78 62 C78 67.28 78 72.56 78 78 C87.9 78 97.8 78 108 78 C108 73.05 108 68.1 108 63 C103.05 63 98.1 63 93 63 C93 57.72 93 52.44 93 47 C98.28 47 103.56 47 109 47 C109 51.95 109 56.9 109 62 C113.95 62 118.9 62 124 62 C124 72.56 124 83.12 124 94 C128.95 94 133.9 94 139 94 C139 104.23 139 114.46 139 125 C144.28 125 149.56 125 155 125 C155 129.95 155 134.9 155 140 C149.72 140 144.44 140 139 140 C139 155.18 139 170.36 139 186 C134.05 186 129.1 186 124 186 C124 160.59 124 135.18 124 109 C118.72 109 113.44 109 108 109 C108 124.18 108 139.36 108 155 C103.05 155 98.1 155 93 155 C93 160.28 93 165.56 93 171 C97.95 171 102.9 171 108 171 C108 181.23 108 191.46 108 202 C103.05 202 98.1 202 93 202 C93 196.72 93 191.44 93 186 C88.05 186 83.1 186 78 186 C78 175.77 78 165.54 78 155 C72.72 155 67.44 155 62 155 C62 150.05 62 145.1 62 140 C67.28 140 72.56 140 78 140 C78 129.77 78 119.54 78 109 C72.72 109 67.44 109 62 109 C62 113.95 62 118.9 62 124 C57.05 124 52.1 124 47 124 C47 119.05 47 114.1 47 109 C41.72 109 36.44 109 31 109 C31 103.72 31 98.44 31 93 C20.77 93 10.54 93 0 93 C0 88.05 0 83.1 0 78 C-4.95 78 -9.9 78 -15 78 C-16.29152416 62.3402696 -16.08875781 46.70026985 -16 31 C-10.72 31 -5.44 31 0 31 C0 20.77 0 10.54 0 0 Z " fill="#010101" transform="translate(315,116)"/>
<path d="M0 0 C35.97 0 71.94 0 109 0 C109 35.97 109 71.94 109 109 C73.03 109 37.06 109 0 109 C0 73.03 0 37.06 0 0 Z " fill="#030303" transform="translate(36,380)"/>
<path d="M0 0 C35.97 0 71.94 0 109 0 C109 35.97 109 71.94 109 109 C73.03 109 37.06 109 0 109 C0 73.03 0 37.06 0 0 Z " fill="#030303" transform="translate(377,39)"/>
<path d="M0 0 C35.97 0 71.94 0 109 0 C109 35.97 109 71.94 109 109 C73.03 109 37.06 109 0 109 C0 73.03 0 37.06 0 0 Z " fill="#060606" transform="translate(36,39)"/>
<path d="M0 0 C5.28 0 10.56 0 16 0 C16 10.23 16 20.46 16 31 C25.9 31 35.8 31 46 31 C46 26.05 46 21.1 46 16 C41.05 16 36.1 16 31 16 C31 10.72 31 5.44 31 0 C36.28 0 41.56 0 47 0 C47 4.95 47 9.9 47 15 C51.95 15 56.9 15 62 15 C62 10.05 62 5.1 62 0 C67.28 0 72.56 0 78 0 C78 10.23 78 20.46 78 31 C87.9 31 97.8 31 108 31 C108 26.05 108 21.1 108 16 C103.05 16 98.1 16 93 16 C93 10.72 93 5.44 93 0 C98.28 0 103.56 0 109 0 C109 4.95 109 9.9 109 15 C119.23 15 129.46 15 140 15 C140 20.28 140 25.56 140 31 C144.95 31 149.9 31 155 31 C155 25.72 155 20.44 155 15 C165.23 15 175.46 15 186 15 C186 20.28 186 25.56 186 31 C190.95 31 195.9 31 201 31 C201 25.72 201 20.44 201 15 C206.28 15 211.56 15 217 15 C217 20.28 217 25.56 217 31 C212.05 31 207.1 31 202 31 C202 35.95 202 40.9 202 46 C204.97 46 207.94 46 211 46 C208.18935893 47.87376071 205.50116542 49.16048362 202.4375 50.5625 C188.41999932 57.55432099 180.21214756 68.64211102 174.9453125 83.1171875 C173.65108819 87.06403684 172.87419039 90.38017706 172.90234375 94.546875 C172.90556641 95.39121094 172.90878906 96.23554688 172.91210938 97.10546875 C172.92048828 97.97816406 172.92886719 98.85085938 172.9375 99.75 C172.94426758 101.08224609 172.94426758 101.08224609 172.95117188 102.44140625 C172.962926 104.62767329 172.97935751 106.81380179 173 109 C172.34 109 171.68 109 171 109 C171 113.95 171 118.9 171 124 C165.72 124 160.44 124 155 124 C155 118.72 155 113.44 155 108 C159.95 108 164.9 108 170 108 C170 103.05 170 98.1 170 93 C159.77 93 149.54 93 139 93 C139 87.72 139 82.44 139 77 C144.28 77 149.56 77 155 77 C155 72.05 155 67.1 155 62 C159.95 62 164.9 62 170 62 C170 57.05 170 52.1 170 47 C160.1 47 150.2 47 140 47 C140 51.95 140 56.9 140 62 C134.72 62 129.44 62 124 62 C124 57.05 124 52.1 124 47 C108.49 47 92.98 47 77 47 C77 51.95 77 56.9 77 62 C72.05 62 67.1 62 62 62 C62 66.95 62 71.9 62 77 C67.28 77 72.56 77 78 77 C78 87.23 78 97.46 78 108 C82.95 108 87.9 108 93 108 C93 113.28 93 118.56 93 124 C87.72 124 82.44 124 77 124 C77 119.05 77 114.1 77 109 C72.05 109 67.1 109 62 109 C62 98.77 62 88.54 62 78 C51.77 78 41.54 78 31 78 C31 82.95 31 87.9 31 93 C20.77 93 10.54 93 0 93 C0 87.72 0 82.44 0 77 C10.23 77 20.46 77 31 77 C31 72.05 31 67.1 31 62 C20.77 62 10.54 62 0 62 C0 56.72 0 51.44 0 46 C4.95 46 9.9 46 15 46 C15 41.05 15 36.1 15 31 C10.05 31 5.1 31 0 31 C0 20.77 0 10.54 0 0 Z " fill="#030303" transform="translate(36,163)"/>
<path d="M0 0 C4.95 0 9.9 0 15 0 C15 10.23 15 20.46 15 31 C19.95 31 24.9 31 30 31 C30 36.28 30 41.56 30 47 C35.28 47 40.56 47 46 47 C46 41.72 46 36.44 46 31 C56.23 31 66.46 31 77 31 C77 26.05 77 21.1 77 16 C82.28 16 87.56 16 93 16 C93 10.72 93 5.44 93 0 C102.9 0 112.8 0 123 0 C123 5.28 123 10.56 123 16 C128.28 16 133.56 16 139 16 C139 41.41 139 66.82 139 93 C134.05 93 129.1 93 124 93 C124 72.54 124 52.08 124 31 C118.72 31 113.44 31 108 31 C108 35.95 108 40.9 108 46 C102.72 46 97.44 46 92 46 C92 61.51 92 77.02 92 93 C102.23 93 112.46 93 123 93 C123 97.95 123 102.9 123 108 C112.77 108 102.54 108 92 108 C92 113.28 92 118.56 92 124 C87.05 124 82.1 124 77 124 C77 118.72 77 113.44 77 108 C66.77 108 56.54 108 46 108 C46 103.05 46 98.1 46 93 C41.05 93 36.1 93 31 93 C31 82.77 31 72.54 31 62 C25.72 62 20.44 62 15 62 C15 56.72 15 51.44 15 46 C9.72 46 4.44 46 -1 46 C-1 51.28 -1 56.56 -1 62 C-5.95 62 -10.9 62 -16 62 C-16 51.77 -16 41.54 -16 31 C-10.72 31 -5.44 31 0 31 C0 20.77 0 10.54 0 0 Z " fill="#FCFCFC" transform="translate(207,349)"/>
<path d="M0 0 C10.70113774 8.02962663 17.50252275 18.010091 20.75 31 C22.0542417 46.65090043 19.16319739 60.06973965 8.8125 72.3125 C0.06527191 81.45666113 -11.0104409 87.24607101 -23.69140625 88.203125 C-31.58630987 88.33202139 -40.0113856 87.76830307 -47.0625 83.85546875 C-49.5707049 82.74801538 -50.85052963 83.06487446 -53.5 83.6875 C-54.36882812 83.88472656 -55.23765625 84.08195312 -56.1328125 84.28515625 C-60.20767876 85.30109702 -64.27793125 86.33264131 -68.3359375 87.4140625 C-71 88 -71 88 -75 88 C-74.72285156 86.87722656 -74.44570312 85.75445312 -74.16015625 84.59765625 C-73.05678789 80.07606887 -72.01548543 75.54204851 -71 71 C-70.79246094 70.09378906 -70.58492187 69.18757813 -70.37109375 68.25390625 C-69.4115725 62.74928433 -70.85727024 58.68401103 -72.9921875 53.578125 C-76.91631104 43.53966944 -75.62734244 31.9301715 -72 22 C-66.03100893 9.30405074 -57.70536786 0.95859684 -45 -5 C-29.536623 -10.51983837 -13.89980645 -8.6850593 0 0 Z " fill="#FCFCFC" transform="translate(290,222)"/>
<path d="M0 0 C5.28 0 10.56 0 16 0 C16 4.95 16 9.9 16 15 C21.28 15 26.56 15 32 15 C32 25.56 32 36.12 32 47 C26.72 47 21.44 47 16 47 C16 51.95 16 56.9 16 62 C21.28 62 26.56 62 32 62 C32 77.51 32 93.02 32 109 C26.72 109 21.44 109 16 109 C16 113.95 16 118.9 16 124 C21.28 124 26.56 124 32 124 C32 139.51 32 155.02 32 171 C26.72 171 21.44 171 16 171 C16 175.95 16 180.9 16 186 C10.72 186 5.44 186 0 186 C0 175.77 0 165.54 0 155 C-9.9 155 -19.8 155 -30 155 C-30 159.95 -30 164.9 -30 170 C-25.05 170 -20.1 170 -15 170 C-15 175.28 -15 180.56 -15 186 C-20.28 186 -25.56 186 -31 186 C-31 165.54 -31 145.08 -31 124 C-35.95 124 -40.9 124 -46 124 C-46 118.72 -46 113.44 -46 108 C-41.05 108 -36.1 108 -31 108 C-31 92.82 -31 77.64 -31 62 C-25.72 62 -20.44 62 -15 62 C-15 87.41 -15 112.82 -15 139 C-10.05 139 -5.1 139 0 139 C0 123.82 0 108.64 0 93 C5.28 93 10.56 93 16 93 C16 88.05 16 83.1 16 78 C10.72 78 5.44 78 0 78 C0 67.77 0 57.54 0 47 C-4.95 47 -9.9 47 -15 47 C-15 41.72 -15 36.44 -15 31 C-4.77 31 5.46 31 16 31 C16 26.05 16 21.1 16 16 C10.72 16 5.44 16 0 16 C0 10.72 0 5.44 0 0 Z " fill="#010101" transform="translate(454,163)"/>
<path d="M0 0 C5.28 0 10.56 0 16 0 C16 5.28 16 10.56 16 16 C21.28 16 26.56 16 32 16 C32 26.23 32 36.46 32 47 C36.95 47 41.9 47 47 47 C47 51.95 47 56.9 47 62 C57.23 62 67.46 62 78 62 C78 67.28 78 72.56 78 78 C73.05 78 68.1 78 63 78 C63 83.28 63 88.56 63 94 C57.72 94 52.44 94 47 94 C47 83.77 47 73.54 47 63 C42.05 63 37.1 63 32 63 C32 73.23 32 83.46 32 94 C16.49 94 0.98 94 -15 94 C-15 89.05 -15 84.1 -15 79 C-19.95 79 -24.9 79 -30 79 C-30 83.95 -30 88.9 -30 94 C-35.28 94 -40.56 94 -46 94 C-46 88.72 -46 83.44 -46 78 C-41.05 78 -36.1 78 -31 78 C-31 73.05 -31 68.1 -31 63 C-35.95 63 -40.9 63 -46 63 C-46 57.72 -46 52.44 -46 47 C-41.05 47 -36.1 47 -31 47 C-31 42.05 -31 37.1 -31 32 C-35.95 32 -40.9 32 -46 32 C-46 26.72 -46 21.44 -46 16 C-30.82 16 -15.64 16 0 16 C0 10.72 0 5.44 0 0 Z " fill="#030303" transform="translate(206,395)"/>
<path d="M0 0 C25.41 0 50.82 0 77 0 C77 25.41 77 50.82 77 77 C51.59 77 26.18 77 0 77 C0 51.59 0 26.18 0 0 Z " fill="#FFFFFF" transform="translate(52,396)"/>
<path d="M0 0 C25.41 0 50.82 0 77 0 C77 25.41 77 50.82 77 77 C51.59 77 26.18 77 0 77 C0 51.59 0 26.18 0 0 Z " fill="#FFFFFF" transform="translate(393,55)"/>
<path d="M0 0 C25.41 0 50.82 0 77 0 C77 25.41 77 50.82 77 77 C51.59 77 26.18 77 0 77 C0 51.59 0 26.18 0 0 Z " fill="#FFFFFF" transform="translate(52,55)"/>
<path d="M0 0 C0 4.95 0 9.9 0 15 C10.23 15 20.46 15 31 15 C31.09220059 25.41866666 30.79902419 35.61268556 30 46 C20.1 46 10.2 46 0 46 C0 51.28 0 56.56 0 62 C-5.28 62 -10.56 62 -16 62 C-16 66.95 -16 71.9 -16 77 C-26.23 77 -36.46 77 -47 77 C-47 82.28 -47 87.56 -47 93 C-52.28 93 -57.56 93 -63 93 C-63 87.72 -63 82.44 -63 77 C-67.95 77 -72.9 77 -78 77 C-78 66.77 -78 56.54 -78 46 C-82.95 46 -87.9 46 -93 46 C-93 50.95 -93 55.9 -93 61 C-93.33 61 -93.66 61 -94 61 C-94 50.77 -94 40.54 -94 30 C-78.49 30 -62.98 30 -47 30 C-47 25.05 -47 20.1 -47 15 C-44.81375 14.9175 -42.6275 14.835 -40.375 14.75 C-26.49845945 13.94501152 -10.93621222 0 0 0 Z " fill="#010101" transform="translate(300,303)"/>
<path d="M0 0 C9.9 0 19.8 0 30 0 C30 10.23 30 20.46 30 31 C40.23 31 50.46 31 61 31 C61 36.28 61 41.56 61 47 C76.51 47 92.02 47 108 47 C108 51.95 108 56.9 108 62 C112.95 62 117.9 62 123 62 C123 77.18 123 92.36 123 108 C118.05 108 113.1 108 108 108 C108 113.28 108 118.56 108 124 C112.95 124 117.9 124 123 124 C123 134.23 123 144.46 123 155 C118.05 155 113.1 155 108 155 C108 149.72 108 144.44 108 139 C103.05 139 98.1 139 93 139 C93 128.77 93 118.54 93 108 C87.72 108 82.44 108 77 108 C77 103.05 77 98.1 77 93 C82.28 93 87.56 93 93 93 C93 82.77 93 72.54 93 62 C87.72 62 82.44 62 77 62 C77 66.95 77 71.9 77 77 C72.05 77 67.1 77 62 77 C62 72.05 62 67.1 62 62 C56.72 62 51.44 62 46 62 C46 56.72 46 51.44 46 46 C35.77 46 25.54 46 15 46 C15 41.05 15 36.1 15 31 C10.05 31 5.1 31 0 31 C0 20.77 0 10.54 0 0 Z " fill="#FCFCFC" transform="translate(300,163)"/>
<path d="M0 0 C5.28 0 10.56 0 16 0 C16 4.95 16 9.9 16 15 C20.95 15 25.9 15 31 15 C31 10.05 31 5.1 31 0 C36.28 0 41.56 0 47 0 C47 5.28 47 10.56 47 16 C41.72 16 36.44 16 31 16 C31 20.95 31 25.9 31 31 C26.05 31 21.1 31 16 31 C16 35.95 16 40.9 16 46 C20.95 46 25.9 46 31 46 C31 56.56 31 67.12 31 78 C26.05 78 21.1 78 16 78 C16 93.18 16 108.36 16 124 C10.72 124 5.44 124 0 124 C0 103.54 0 83.08 0 62 C-4.95 62 -9.9 62 -15 62 C-15 67.28 -15 72.56 -15 78 C-20.28 78 -25.56 78 -31 78 C-31 82.95 -31 87.9 -31 93 C-35.95 93 -40.9 93 -46 93 C-46 98.28 -46 103.56 -46 109 C-51.28 109 -56.56 109 -62 109 C-62 103.72 -62 98.44 -62 93 C-57.05 93 -52.1 93 -47 93 C-47 88.05 -47 83.1 -47 78 C-51.95 78 -56.9 78 -62 78 C-62 72.72 -62 67.44 -62 62 C-46.82 62 -31.64 62 -16 62 C-16 56.72 -16 51.44 -16 46 C-10.72 46 -5.44 46 0 46 C0 41.05 0 36.1 0 31 C-5.28 31 -10.56 31 -16 31 C-16 25.72 -16 20.44 -16 15 C-10.72 15 -5.44 15 0 15 C0 10.05 0 5.1 0 0 Z " fill="#030303" transform="translate(222,39)"/>
<path d="M0 0 C5.28 0 10.56 0 16 0 C16 4.95 16 9.9 16 15 C26.23 15 36.46 15 47 15 C47 20.28 47 25.56 47 31 C41.72 31 36.44 31 31 31 C31 35.95 31 40.9 31 46 C36.28 46 41.56 46 47 46 C47 51.28 47 56.56 47 62 C26.54 62 6.08 62 -15 62 C-14.9606982 76.41798849 -14.9606982 76.41798849 -14.90991211 90.8359375 C-14.88450895 101.94366496 -15.15457894 112.92298704 -16 124 C-26.23 124 -36.46 124 -47 124 C-47 119.05 -47 114.1 -47 109 C-51.95 109 -56.9 109 -62 109 C-62 98.44 -62 87.88 -62 77 C-51.77 77 -41.54 77 -31 77 C-31 67.1 -31 57.2 -31 47 C-36.28 47 -41.56 47 -47 47 C-47 41.72 -47 36.44 -47 31 C-41.72 31 -36.44 31 -31 31 C-31 35.95 -31 40.9 -31 46 C-15.82 46 -0.64 46 15 46 C15 35.77 15 25.54 15 15 C10.05 15 5.1 15 0 15 C0 10.05 0 5.1 0 0 Z " fill="#020202" transform="translate(315,39)"/>
<path d="M0 0 C5.28 0 10.56 0 16 0 C16 20.46 16 40.92 16 62 C20.95 62 25.9 62 31 62 C31 66.95 31 71.9 31 77 C35.95 77 40.9 77 46 77 C46 72.05 46 67.1 46 62 C51.28 62 56.56 62 62 62 C62 72.23 62 82.46 62 93 C57.05 93 52.1 93 47 93 C47 98.28 47 103.56 47 109 C41.72 109 36.44 109 31 109 C31 103.72 31 98.44 31 93 C15.82 93 0.64 93 -15 93 C-15 98.28 -15 103.56 -15 109 C-20.28 109 -25.56 109 -31 109 C-31 103.72 -31 98.44 -31 93 C-26.05 93 -21.1 93 -16 93 C-16 87.72 -16 82.44 -16 77 C-5.77 77 4.46 77 15 77 C15 72.05 15 67.1 15 62 C4.77 62 -5.46 62 -16 62 C-16 46.49 -16 30.98 -16 15 C-10.72 15 -5.44 15 0 15 C0 10.05 0 5.1 0 0 Z " fill="#000000" transform="translate(315,380)"/>
<path d="M0 0 C5.28 0 10.56 0 16 0 C16 25.41 16 50.82 16 77 C20.95 77 25.9 77 31 77 C31 72.05 31 67.1 31 62 C36.28 62 41.56 62 47 62 C47 66.95 47 71.9 47 77 C51.95 77 56.9 77 62 77 C62 82.28 62 87.56 62 93 C56.72 93 51.44 93 46 93 C46 98.28 46 103.56 46 109 C41.05 109 36.1 109 31 109 C31 103.72 31 98.44 31 93 C15.49 93 -0.02 93 -16 93 C-16 88.05 -16 83.1 -16 78 C-20.95 78 -25.9 78 -31 78 C-31 72.72 -31 67.44 -31 62 C-25.72 62 -20.44 62 -15 62 C-15 66.95 -15 71.9 -15 77 C-10.05 77 -5.1 77 0 77 C0 61.82 0 46.64 0 31 C-5.28 31 -10.56 31 -16 31 C-16 36.28 -16 41.56 -16 47 C-20.95 47 -25.9 47 -31 47 C-31 36.44 -31 25.88 -31 15 C-20.77 15 -10.54 15 0 15 C0 10.05 0 5.1 0 0 Z " fill="#030303" transform="translate(67,256)"/>
<path d="M0 0 C10.23 0 20.46 0 31 0 C31 10.23 31 20.46 31 31 C35.95 31 40.9 31 46 31 C46 35.95 46 40.9 46 46 C51.28 46 56.56 46 62 46 C62 51.28 62 56.56 62 62 C72.23 62 82.46 62 93 62 C93 71.9 93 81.8 93 92 C88.05 92 83.1 92 78 92 C78 87.05 78 82.1 78 77 C72.72 77 67.44 77 62 77 C62 81.95 62 86.9 62 92 C57.05 92 52.1 92 47 92 C47 87.05 47 82.1 47 77 C41.72 77 36.44 77 31 77 C31 81.95 31 86.9 31 92 C26.05 92 21.1 92 16 92 C16 66.59 16 41.18 16 15 C10.72 15 5.44 15 0 15 C0 10.05 0 5.1 0 0 Z " fill="#FEFEFE" transform="translate(67,241)"/>
<path d="M0 0 C10.23 0 20.46 0 31 0 C31 5.28 31 10.56 31 16 C35.95 16 40.9 16 46 16 C46 10.72 46 5.44 46 0 C51.28 0 56.56 0 62 0 C62 5.28 62 10.56 62 16 C57.05 16 52.1 16 47 16 C47 20.95 47 25.9 47 31 C49.97 31 52.94 31 56 31 C53.18935893 32.87376071 50.50116542 34.16048362 47.4375 35.5625 C33.41999932 42.55432099 25.21214756 53.64211102 19.9453125 68.1171875 C18.65108819 72.06403684 17.87419039 75.38017706 17.90234375 79.546875 C17.90556641 80.39121094 17.90878906 81.23554688 17.91210938 82.10546875 C17.92048828 82.97816406 17.92886719 83.85085938 17.9375 84.75 C17.94201172 85.63816406 17.94652344 86.52632813 17.95117188 87.44140625 C17.962926 89.62767329 17.97935751 91.81380179 18 94 C17.34 94 16.68 94 16 94 C16 98.95 16 103.9 16 109 C10.72 109 5.44 109 0 109 C0 103.72 0 98.44 0 93 C4.95 93 9.9 93 15 93 C15 88.05 15 83.1 15 78 C4.77 78 -5.46 78 -16 78 C-16 72.72 -16 67.44 -16 62 C-10.72 62 -5.44 62 0 62 C0 57.05 0 52.1 0 47 C4.95 47 9.9 47 15 47 C15 42.05 15 37.1 15 32 C5.1 32 -4.8 32 -15 32 C-15 36.95 -15 41.9 -15 47 C-20.28 47 -25.56 47 -31 47 C-31 41.72 -31 36.44 -31 31 C-26.05 31 -21.1 31 -16 31 C-16 26.05 -16 21.1 -16 16 C-10.72 16 -5.44 16 0 16 C0 10.72 0 5.44 0 0 Z " fill="#010101" transform="translate(191,178)"/>
<path d="M0 0 C15.51 0 31.02 0 47 0 C47 15.51 47 31.02 47 47 C41.72 47 36.44 47 31 47 C31 52.28 31 57.56 31 63 C26.05 63 21.1 63 16 63 C16 67.95 16 72.9 16 78 C5.77 78 -4.46 78 -15 78 C-15 67.77 -15 57.54 -15 47 C-10.05 47 -5.1 47 0 47 C0 31.49 0 15.98 0 0 Z " fill="#FAFAFA" transform="translate(439,364)"/>
<path d="M0 0 C10.70113774 8.02962663 17.50252275 18.010091 20.75 31 C22.0542417 46.65090043 19.16319739 60.06973965 8.8125 72.3125 C0.06527191 81.45666113 -11.0104409 87.24607101 -23.69140625 88.203125 C-31.58630987 88.33202139 -40.0113856 87.76830307 -47.0625 83.85546875 C-49.5707049 82.74801538 -50.85052963 83.06487446 -53.5 83.6875 C-54.36882812 83.88472656 -55.23765625 84.08195312 -56.1328125 84.28515625 C-60.20767876 85.30109702 -64.27793125 86.33264131 -68.3359375 87.4140625 C-71 88 -71 88 -75 88 C-74.72285156 86.87722656 -74.44570312 85.75445312 -74.16015625 84.59765625 C-73.05678789 80.07606887 -72.01548543 75.54204851 -71 71 C-70.79246094 70.09378906 -70.58492187 69.18757813 -70.37109375 68.25390625 C-69.4115725 62.74928433 -70.85727024 58.68401103 -72.9921875 53.578125 C-76.91631104 43.53966944 -75.62734244 31.9301715 -72 22 C-66.03100893 9.30405074 -57.70536786 0.95859684 -45 -5 C-29.536623 -10.51983837 -13.89980645 -8.6850593 0 0 Z M-58.09765625 14.28515625 C-63.9781848 21.9635534 -67.8345717 31.89050757 -67.328125 41.67578125 C-66.50211217 47.52670544 -65.51238125 53.54877339 -62.3828125 58.62109375 C-59.73805248 63.17097752 -61.87516998 68.63882999 -63.0625 73.5 C-63.371875 74.655 -63.68125 75.81 -64 77 C-59.35537875 76.42624268 -59.35537875 76.42624268 -54.8125 75.34765625 C-50.54535897 74.09566522 -48.00620808 73.59158571 -44 75.75 C-43.3503125 76.1315625 -42.700625 76.513125 -42.03125 76.90625 C-33.3693111 81.57037095 -23.22793206 80.58281315 -14.08984375 78.09375 C-4.50477653 74.70080585 2.6884094 68.63133473 8 60 C13.46091736 48.17330398 14.52385051 37.67540573 10.3828125 25.28125 C6.07077414 15.04929457 -1.22030993 7.33415289 -11.4609375 2.9453125 C-13.62708083 2.18968111 -15.77557536 1.5572206 -18 1 C-18.825 0.773125 -19.65 0.54625 -20.5 0.3125 C-35.05294919 -1.50661865 -48.13575184 3.43280228 -58.09765625 14.28515625 Z " fill="#070707" transform="translate(290,222)"/>
<path d="M0 0 C15.51 0 31.02 0 47 0 C47 15.51 47 31.02 47 47 C31.49 47 15.98 47 0 47 C0 31.49 0 15.98 0 0 Z " fill="#020202" transform="translate(67,411)"/>
<path d="M0 0 C15.51 0 31.02 0 47 0 C47 15.51 47 31.02 47 47 C31.49 47 15.98 47 0 47 C0 31.49 0 15.98 0 0 Z " fill="#020202" transform="translate(408,70)"/>
<path d="M0 0 C15.51 0 31.02 0 47 0 C47 15.51 47 31.02 47 47 C31.49 47 15.98 47 0 47 C0 31.49 0 15.98 0 0 Z " fill="#040404" transform="translate(67,70)"/>
<path d="M0 0 C15.18 0 30.36 0 46 0 C46 15.18 46 30.36 46 46 C30.82 46 15.64 46 0 46 C0 30.82 0 15.64 0 0 Z " fill="#FFFFFF" transform="translate(362,365)"/>
<path d="M0 0 C4.95 0 9.9 0 15 0 C15 5.28 15 10.56 15 16 C19.95 16 24.9 16 30 16 C30 26.23 30 36.46 30 47 C35.28 47 40.56 47 46 47 C46 51.95 46 56.9 46 62 C40.72 62 35.44 62 30 62 C30 77.18 30 92.36 30 108 C25.05 108 20.1 108 15 108 C15 82.59 15 57.18 15 31 C10.05 31 5.1 31 0 31 C0 20.77 0 10.54 0 0 Z " fill="#FAFAFA" transform="translate(424,194)"/>
<path d="M0 0 C5.28 0 10.56 0 16 0 C16 4.95 16 9.9 16 15 C26.23 15 36.46 15 47 15 C47 20.28 47 25.56 47 31 C42.05 31 37.1 31 32 31 C32 36.28 32 41.56 32 47 C26.72 47 21.44 47 16 47 C16 36.77 16 26.54 16 16 C11.05 16 6.1 16 1 16 C1 26.23 1 36.46 1 47 C-14.51 47 -30.02 47 -46 47 C-46 41.72 -46 36.44 -46 31 C-35.77 31 -25.54 31 -15 31 C-15 25.72 -15 20.44 -15 15 C-10.05 15 -5.1 15 0 15 C0 10.05 0 5.1 0 0 Z " fill="#010101" transform="translate(237,442)"/>
<path d="M0 0 C15.51 0 31.02 0 47 0 C47 4.95 47 9.9 47 15 C36.77 15 26.54 15 16 15 C16 20.28 16 25.56 16 31 C20.95 31 25.9 31 31 31 C31 35.95 31 40.9 31 46 C26.05 46 21.1 46 16 46 C16 50.95 16 55.9 16 61 C11.05 61 6.1 61 1 61 C1 50.77 1 40.54 1 30 C-4.28 30 -9.56 30 -15 30 C-15 25.05 -15 20.1 -15 15 C-10.05 15 -5.1 15 0 15 C0 10.05 0 5.1 0 0 Z " fill="#FDFDFD" transform="translate(113,210)"/>
<path d="M0 0 C15.51 0 31.02 0 47 0 C47 15.51 47 31.02 47 47 C41.72 47 36.44 47 31 47 C31 42.05 31 37.1 31 32 C25.72 32 20.44 32 15 32 C15 26.72 15 21.44 15 16 C10.05 16 5.1 16 0 16 C0 10.72 0 5.44 0 0 Z " fill="#000000" transform="translate(439,364)"/>
<path d="M0 0 C4.95 0 9.9 0 15 0 C15.79902419 10.38731444 16.09220059 20.58133334 16 31 C10.72 31 5.44 31 0 31 C0 41.23 0 51.46 0 62 C-5.28 62 -10.56 62 -16 62 C-16 51.77 -16 41.54 -16 31 C-20.95 31 -25.9 31 -31 31 C-31 25.72 -31 20.44 -31 15 C-20.77 15 -10.54 15 0 15 C0 10.05 0 5.1 0 0 Z " fill="#000000" transform="translate(191,349)"/>
<path d="M0 0 C5.28 0 10.56 0 16 0 C16 5.28 16 10.56 16 16 C10.72 16 5.44 16 0 16 C0 20.95 0 25.9 0 31 C5.28 31 10.56 31 16 31 C16 36.28 16 41.56 16 47 C5.44 47 -5.12 47 -16 47 C-16 36.44 -16 25.88 -16 15 C-10.72 15 -5.44 15 0 15 C0 10.05 0 5.1 0 0 Z " fill="#000000" transform="translate(470,442)"/>
<path d="M0 0 C9.9 0 19.8 0 30 0 C30 4.95 30 9.9 30 15 C25.05 15 20.1 15 15 15 C15 20.28 15 25.56 15 31 C4.77 31 -5.46 31 -16 31 C-16 26.05 -16 21.1 -16 16 C-10.72 16 -5.44 16 0 16 C0 10.72 0 5.44 0 0 Z " fill="#FAFAFA" transform="translate(207,442)"/>
<path d="M0 0 C5.28 0 10.56 0 16 0 C16 10.23 16 20.46 16 31 C20.95 31 25.9 31 31 31 C31 36.28 31 41.56 31 47 C25.72 47 20.44 47 15 47 C15 42.05 15 37.1 15 32 C10.05 32 5.1 32 0 32 C0 21.44 0 10.88 0 0 Z " fill="#080808" transform="translate(98,240)"/>
<path d="M0 0 C0.886875 0.12375 1.77375 0.2475 2.6875 0.375 C3.55894869 1.9279276 4.40903657 3.49285436 5.25 5.0625 C5.72566406 5.93261719 6.20132813 6.80273438 6.69140625 7.69921875 C7.84625216 10.80145189 7.74029562 12.26951745 6.6875 15.375 C6.0275 16.035 5.3675 16.695 4.6875 17.375 C5.17839167 22.49734786 9.16258878 25.96176913 12.6875 29.375 C15.55764874 31.57683968 18.19903341 33.375 21.9375 33.375 C24.18582059 32.09024538 25.29550629 30.53259025 26.6875 28.375 C31.96887429 28.89025603 35.25971156 30.62977117 39.6875 33.375 C40 36.0625 40 36.0625 39.6875 39.375 C34.86226565 45.08909331 34.86226565 45.08909331 30.875 45.61328125 C20.33516153 45.97088291 12.2974851 41.35968912 4.6875 34.375 C-2.17208075 27.59286613 -8.27977628 21.21999731 -8.875 11.25 C-8.72129142 7.81540834 -8.22274825 5.54270309 -6.1875 2.75 C-3.3125 0.375 -3.3125 0.375 0 0 Z " fill="#050505" transform="translate(247.3125,239.625)"/>
<path d="M0 0 C5.28 0 10.56 0 16 0 C16 5.28 16 10.56 16 16 C11.05 16 6.1 16 1 16 C1 20.95 1 25.9 1 31 C-4.28 31 -9.56 31 -15 31 C-15 25.72 -15 20.44 -15 15 C-10.05 15 -5.1 15 0 15 C0 10.05 0 5.1 0 0 Z " fill="#000000" transform="translate(454,411)"/>
<path d="M0 0 C5.28 0 10.56 0 16 0 C16 4.95 16 9.9 16 15 C20.95 15 25.9 15 31 15 C31 20.28 31 25.56 31 31 C25.72 31 20.44 31 15 31 C15 26.05 15 21.1 15 16 C10.05 16 5.1 16 0 16 C0 10.72 0 5.44 0 0 Z " fill="#000000" transform="translate(408,163)"/>
<path d="M0 0 C10.23 0 20.46 0 31 0 C31 5.28 31 10.56 31 16 C20.77 16 10.54 16 0 16 C0 10.72 0 5.44 0 0 Z " fill="#000000" transform="translate(36,240)"/>
<path d="M0 0 C4.95 0 9.9 0 15 0 C15 10.23 15 20.46 15 31 C10.05 31 5.1 31 0 31 C0 20.77 0 10.54 0 0 Z " fill="#FCFCFC" transform="translate(238,349)"/>
<path d="M0 0 C4.95 0 9.9 0 15 0 C15 10.23 15 20.46 15 31 C10.05 31 5.1 31 0 31 C0 20.77 0 10.54 0 0 Z " fill="#000000" transform="translate(36,163)"/>
<path d="M0 0 C10.23 0 20.46 0 31 0 C31 4.95 31 9.9 31 15 C20.77 15 10.54 15 0 15 C0 10.05 0 5.1 0 0 Z " fill="#020202" transform="translate(331,132)"/>
<path d="M0 0 C5.28 0 10.56 0 16 0 C16 5.28 16 10.56 16 16 C10.72 16 5.44 16 0 16 C0 10.72 0 5.44 0 0 Z " fill="#000000" transform="translate(268,395)"/>
<path d="M0 0 C5.28 0 10.56 0 16 0 C16 5.28 16 10.56 16 16 C10.72 16 5.44 16 0 16 C0 10.72 0 5.44 0 0 Z " fill="#030303" transform="translate(377,380)"/>
<path d="M0 0 C5.28 0 10.56 0 16 0 C16 5.28 16 10.56 16 16 C10.72 16 5.44 16 0 16 C0 10.72 0 5.44 0 0 Z " fill="#010101" transform="translate(237,380)"/>
<path d="M0 0 C5.28 0 10.56 0 16 0 C16 5.28 16 10.56 16 16 C10.72 16 5.44 16 0 16 C0 10.72 0 5.44 0 0 Z " fill="#000000" transform="translate(423,333)"/>
<path d="M0 0 C5.28 0 10.56 0 16 0 C16 5.28 16 10.56 16 16 C10.72 16 5.44 16 0 16 C0 10.72 0 5.44 0 0 Z " fill="#040404" transform="translate(346,318)"/>
<path d="M0 0 C5.28 0 10.56 0 16 0 C16 5.28 16 10.56 16 16 C10.72 16 5.44 16 0 16 C0 10.72 0 5.44 0 0 Z " fill="#000000" transform="translate(113,271)"/>
<path d="M0 0 C5.28 0 10.56 0 16 0 C16 5.28 16 10.56 16 16 C10.72 16 5.44 16 0 16 C0 10.72 0 5.44 0 0 Z " fill="#000000" transform="translate(268,147)"/>
<path d="M0 0 C5.28 0 10.56 0 16 0 C16 5.28 16 10.56 16 16 C10.72 16 5.44 16 0 16 C0 10.72 0 5.44 0 0 Z " fill="#0A0A0A" transform="translate(191,132)"/>
<path d="M0 0 C5.28 0 10.56 0 16 0 C16 5.28 16 10.56 16 16 C10.72 16 5.44 16 0 16 C0 10.72 0 5.44 0 0 Z " fill="#000000" transform="translate(299,54)"/>
<path d="M0 0 C5.28 0 10.56 0 16 0 C16 5.28 16 10.56 16 16 C10.72 16 5.44 16 0 16 C0 10.72 0 5.44 0 0 Z " fill="#050505" transform="translate(160,54)"/>
<path d="M0 0 C5.28 0 10.56 0 16 0 C16 5.28 16 10.56 16 16 C10.72 16 5.44 16 0 16 C0 10.72 0 5.44 0 0 Z " fill="#0B0B0B" transform="translate(253,39)"/>
<path d="M0 0 C5.28 0 10.56 0 16 0 C16.020625 2.454375 16.04125 4.90875 16.0625 7.4375 C16.071604 8.21150146 16.08070801 8.98550293 16.09008789 9.78295898 C16.09724913 11.52221717 16.05024702 13.26145304 16 15 C15 16 15 16 11.62109375 16.09765625 C10.22652508 16.09191424 8.83198403 16.07890228 7.4375 16.0625 C4.983125 16.041875 2.52875 16.02125 0 16 C0 10.72 0 5.44 0 0 Z " fill="#060606" transform="translate(408,163)"/>
<path d="M0 0 C5.28 0 10.56 0 16 0 C16.020625 2.454375 16.04125 4.90875 16.0625 7.4375 C16.071604 8.21150146 16.08070801 8.98550293 16.09008789 9.78295898 C16.09724913 11.52221717 16.05024702 13.26145304 16 15 C15 16 15 16 11.62109375 16.09765625 C10.22652508 16.09191424 8.83198403 16.07890228 7.4375 16.0625 C4.983125 16.041875 2.52875 16.02125 0 16 C0 10.72 0 5.44 0 0 Z " fill="#0B0B0B" transform="translate(67,163)"/>
<path d="M0 0 C4.95 0 9.9 0 15 0 C15 5.28 15 10.56 15 16 C10.05 16 5.1 16 0 16 C0 10.72 0 5.44 0 0 Z " fill="#000000" transform="translate(160,473)"/>
<path d="M0 0 C4.95 0 9.9 0 15 0 C15 5.28 15 10.56 15 16 C10.05 16 5.1 16 0 16 C0 10.72 0 5.44 0 0 Z " fill="#020202" transform="translate(36,349)"/>
<path d="M0 0 C4.95 0 9.9 0 15 0 C15 5.28 15 10.56 15 16 C10.05 16 5.1 16 0 16 C0 10.72 0 5.44 0 0 Z " fill="#000000" transform="translate(346,271)"/>
<path d="M0 0 C4.95 0 9.9 0 15 0 C15 5.28 15 10.56 15 16 C10.05 16 5.1 16 0 16 C0 10.72 0 5.44 0 0 Z " fill="#F0F0F0" transform="translate(284,147)"/>
<path d="M0 0 C5.28 0 10.56 0 16 0 C16 4.95 16 9.9 16 15 C10.72 15 5.44 15 0 15 C0 10.05 0 5.1 0 0 Z " fill="#000000" transform="translate(268,70)"/>
<path d="M0 0 C5.28 0 10.56 0 16 0 C16 4.95 16 9.9 16 15 C10.72 15 5.44 15 0 15 C0 10.05 0 5.1 0 0 Z " fill="#020202" transform="translate(315,39)"/>
<path d="M0 0 C4.95 0 9.9 0 15 0 C15 4.95 15 9.9 15 15 C10.05 15 5.1 15 0 15 C0 10.05 0 5.1 0 0 Z " fill="#F1F1F1" transform="translate(346,442)"/>
<path d="M0 0 C4.95 0 9.9 0 15 0 C15 4.95 15 9.9 15 15 C10.05 15 5.1 15 0 15 C0 10.05 0 5.1 0 0 Z " fill="#000000" transform="translate(160,411)"/>
<path d="M0 0 C4.95 0 9.9 0 15 0 C15 4.95 15 9.9 15 15 C10.05 15 5.1 15 0 15 C0 10.05 0 5.1 0 0 Z " fill="#F7F7F7" transform="translate(408,334)"/>
<path d="M0 0 C4.95 0 9.9 0 15 0 C15 4.95 15 9.9 15 15 C10.05 15 5.1 15 0 15 C0 10.05 0 5.1 0 0 Z " fill="#FFFFFF" transform="translate(269,334)"/>
<path d="M0 0 C4.95 0 9.9 0 15 0 C15 4.95 15 9.9 15 15 C10.05 15 5.1 15 0 15 C0 10.05 0 5.1 0 0 Z " fill="#FDFDFD" transform="translate(129,334)"/>
<path d="M0 0 C4.95 0 9.9 0 15 0 C15 4.95 15 9.9 15 15 C10.05 15 5.1 15 0 15 C0 10.05 0 5.1 0 0 Z " fill="#000000" transform="translate(129,318)"/>
<path d="M0 0 C4.95 0 9.9 0 15 0 C15 4.95 15 9.9 15 15 C10.05 15 5.1 15 0 15 C0 10.05 0 5.1 0 0 Z " fill="#FFFFFF" transform="translate(455,303)"/>
<path d="M0 0 C4.95 0 9.9 0 15 0 C15 4.95 15 9.9 15 15 C10.05 15 5.1 15 0 15 C0 10.05 0 5.1 0 0 Z " fill="#FFFFFF" transform="translate(362,272)"/>
<path d="M0 0 C4.95 0 9.9 0 15 0 C15 4.95 15 9.9 15 15 C10.05 15 5.1 15 0 15 C0 10.05 0 5.1 0 0 Z " fill="#FDFDFD" transform="translate(129,272)"/>
<path d="M0 0 C4.95 0 9.9 0 15 0 C15 4.95 15 9.9 15 15 C10.05 15 5.1 15 0 15 C0 10.05 0 5.1 0 0 Z " fill="#F9F9F9" transform="translate(160,194)"/>
<path d="M0 0 C4.95 0 9.9 0 15 0 C15 4.95 15 9.9 15 15 C10.05 15 5.1 15 0 15 C0 10.05 0 5.1 0 0 Z " fill="#FCFCFC" transform="translate(83,194)"/>
<path d="M0 0 C4.95 0 9.9 0 15 0 C15 4.95 15 9.9 15 15 C10.05 15 5.1 15 0 15 C0 10.05 0 5.1 0 0 Z " fill="#FDFDFD" transform="translate(331,132)"/>
<path d="M0 0 C4.95 0 9.9 0 15 0 C15 4.95 15 9.9 15 15 C10.05 15 5.1 15 0 15 C0 10.05 0 5.1 0 0 Z " fill="#FDFDFD" transform="translate(269,132)"/>
<path d="M0 0 C4.95 0 9.9 0 15 0 C15 4.62 15 9.24 15 14 C10.05 14 5.1 14 0 14 C0 9.38 0 4.76 0 0 Z " fill="#FFFFFF" transform="translate(176,412)"/>
<path d="M0 0 C5.65020618 0.60108576 10.66164461 2.07528683 16 4 C16 4.66 16 5.32 16 6 C10.72 6 5.44 6 0 6 C0 4.02 0 2.04 0 0 Z " fill="#040404" transform="translate(237,312)"/>
<path d="M0 0 C0.33 0 0.66 0 1 0 C1.33 3.3 1.66 6.6 2 10 C1.34 10 0.68 10 0 10 C0 14.95 0 19.9 0 25 C-0.33 25 -0.66 25 -1 25 C-1.0289337 21.20834926 -1.04677601 17.41672673 -1.0625 13.625 C-1.07087891 12.54476563 -1.07925781 11.46453125 -1.08789062 10.3515625 C-1.09111328 9.3203125 -1.09433594 8.2890625 -1.09765625 7.2265625 C-1.10289307 6.27346191 -1.10812988 5.32036133 -1.11352539 4.33837891 C-1 2 -1 2 0 0 Z " fill="#2B2B2B" transform="translate(207,262)"/>
</svg>
